<svg width="72" height="21" viewBox="0 0 72 21" fill="none" xmlns="http://www.w3.org/2000/svg">
<rect width="72" height="21" fill="white"/>
<rect width="72" height="21" rx="10.5" fill="#F9F9F9"/>
<path d="M29.354 8.54545C29.3114 8.18561 29.1386 7.90625 28.8356 7.70739C28.5326 7.50852 28.1609 7.40909 27.7205 7.40909C27.3986 7.40909 27.1168 7.46117 26.8754 7.56534C26.6362 7.66951 26.4492 7.81274 26.3143 7.99503C26.1817 8.17732 26.1154 8.38447 26.1154 8.61648C26.1154 8.81061 26.1616 8.97751 26.2539 9.11719C26.3486 9.2545 26.4693 9.36932 26.6161 9.46165C26.7629 9.55161 26.9168 9.62618 27.0778 9.68537C27.2388 9.74219 27.3867 9.78835 27.5217 9.82386L28.2603 10.0227C28.4497 10.0724 28.6604 10.1411 28.8924 10.2287C29.1268 10.3163 29.3505 10.4358 29.5636 10.5874C29.779 10.7365 29.9566 10.9283 30.0962 11.1626C30.2359 11.397 30.3058 11.6847 30.3058 12.0256C30.3058 12.4186 30.2028 12.7737 29.9968 13.0909C29.7932 13.4081 29.4949 13.6603 29.1019 13.8473C28.7113 14.0343 28.2366 14.1278 27.6779 14.1278C27.1571 14.1278 26.7061 14.0438 26.3249 13.8757C25.9461 13.7076 25.6478 13.4732 25.43 13.1726C25.2146 12.8719 25.0927 12.5227 25.0643 12.125H25.9734C25.997 12.3996 26.0894 12.6269 26.2504 12.8068C26.4137 12.9844 26.6197 13.117 26.8683 13.2045C27.1192 13.2898 27.3891 13.3324 27.6779 13.3324C28.0141 13.3324 28.3159 13.2779 28.5835 13.169C28.851 13.0578 29.0629 12.9039 29.2191 12.7074C29.3754 12.5085 29.4535 12.2765 29.4535 12.0114C29.4535 11.7699 29.386 11.5734 29.2511 11.4219C29.1161 11.2704 28.9386 11.1473 28.7184 11.0526C28.4982 10.9579 28.2603 10.875 28.0046 10.804L27.1097 10.5483C26.5415 10.3849 26.0917 10.1518 25.7603 9.84872C25.4289 9.54569 25.2631 9.14915 25.2631 8.65909C25.2631 8.25189 25.3732 7.89678 25.5934 7.59375C25.8159 7.28835 26.1142 7.05161 26.4883 6.88352C26.8647 6.71307 27.2849 6.62784 27.7489 6.62784C28.2177 6.62784 28.6344 6.71188 28.9989 6.87997C29.3635 7.04569 29.6523 7.27296 29.8654 7.56179C30.0808 7.85062 30.1945 8.1785 30.2063 8.54545H29.354ZM33.2452 14.1278C32.8996 14.1278 32.5859 14.0627 32.3042 13.9325C32.0224 13.8 31.7987 13.6094 31.633 13.3608C31.4673 13.1098 31.3844 12.8068 31.3844 12.4517C31.3844 12.1392 31.446 11.8859 31.5691 11.6918C31.6922 11.4953 31.8567 11.3414 32.0627 11.2301C32.2686 11.1188 32.4959 11.036 32.7445 10.9815C32.9954 10.9247 33.2476 10.8797 33.5009 10.8466C33.8323 10.804 34.101 10.772 34.307 10.7507C34.5153 10.727 34.6668 10.688 34.7615 10.6335C34.8586 10.5791 34.9071 10.4844 34.9071 10.3494V10.321C34.9071 9.97064 34.8113 9.69839 34.6195 9.50426C34.4301 9.31013 34.1425 9.21307 33.7566 9.21307C33.3565 9.21307 33.0428 9.30066 32.8155 9.47585C32.5882 9.65104 32.4284 9.83807 32.3361 10.0369L31.5407 9.75284C31.6827 9.4214 31.8721 9.16335 32.1088 8.97869C32.348 8.79167 32.6084 8.66146 32.8901 8.58807C33.1742 8.51231 33.4535 8.47443 33.7282 8.47443C33.9033 8.47443 34.1046 8.49574 34.3319 8.53835C34.5615 8.5786 34.7828 8.66264 34.9959 8.79048C35.2114 8.91832 35.3901 9.11127 35.5321 9.36932C35.6742 9.62737 35.7452 9.97301 35.7452 10.4062V14H34.9071V13.2614H34.8645C34.8077 13.3797 34.713 13.5064 34.5804 13.6413C34.4479 13.7763 34.2715 13.8911 34.0513 13.9858C33.8311 14.0805 33.5624 14.1278 33.2452 14.1278ZM33.373 13.375C33.7045 13.375 33.9838 13.3099 34.2111 13.1797C34.4408 13.0495 34.6136 12.8814 34.7296 12.6754C34.848 12.4695 34.9071 12.2528 34.9071 12.0256V11.2585C34.8716 11.3011 34.7935 11.3402 34.6728 11.3757C34.5544 11.4089 34.4171 11.4384 34.2608 11.4645C34.1069 11.4882 33.9566 11.5095 33.8098 11.5284C33.6654 11.545 33.5482 11.5592 33.4583 11.571C33.2405 11.5994 33.0369 11.6456 32.8475 11.7095C32.6605 11.7711 32.5089 11.8646 32.3929 11.9901C32.2793 12.1132 32.2225 12.2812 32.2225 12.4943C32.2225 12.7855 32.3302 13.0057 32.5456 13.1548C32.7634 13.3016 33.0392 13.375 33.373 13.375ZM41.5398 8.54545L39.5227 14H38.6705L36.6534 8.54545H37.5625L39.0682 12.892H39.125L40.6307 8.54545H41.5398ZM44.7376 14.1136C44.212 14.1136 43.7586 13.9976 43.3775 13.7656C42.9987 13.5312 42.7063 13.2045 42.5004 12.7855C42.2968 12.3641 42.195 11.8741 42.195 11.3153C42.195 10.7566 42.2968 10.2642 42.5004 9.83807C42.7063 9.40956 42.9928 9.07576 43.3597 8.83665C43.729 8.59517 44.1599 8.47443 44.6523 8.47443C44.9364 8.47443 45.217 8.52178 45.494 8.61648C45.771 8.71117 46.0231 8.86506 46.2504 9.07812C46.4776 9.28883 46.6587 9.56818 46.7937 9.91619C46.9286 10.2642 46.9961 10.6927 46.9961 11.2017V11.5568H42.7915V10.8324H46.1438C46.1438 10.5246 46.0823 10.25 45.9592 10.0085C45.8384 9.76705 45.6656 9.57647 45.4407 9.43679C45.2182 9.29711 44.9554 9.22727 44.6523 9.22727C44.3185 9.22727 44.0297 9.31013 43.7859 9.47585C43.5444 9.6392 43.3585 9.85227 43.2283 10.1151C43.0981 10.3778 43.033 10.6596 43.033 10.9602V11.4432C43.033 11.8551 43.104 12.2043 43.2461 12.4908C43.3905 12.7749 43.5906 12.9915 43.8462 13.1406C44.1019 13.2874 44.399 13.3608 44.7376 13.3608C44.9577 13.3608 45.1566 13.33 45.3342 13.2685C45.5141 13.2045 45.6692 13.1098 45.7994 12.9844C45.9296 12.8565 46.0302 12.6979 46.1012 12.5085L46.9109 12.7358C46.8256 13.0104 46.6824 13.2519 46.4812 13.4602C46.2799 13.6662 46.0314 13.8272 45.7354 13.9432C45.4395 14.0568 45.1069 14.1136 44.7376 14.1136Z" fill="black"/>
</svg>
